<?xml version="1.0" encoding="UTF-8"?>
<!-- 이펙트 - 별빛 반짝임 (sparkle). 작은 4-spike 별 다수 -->
<svg xmlns="http://www.w3.org/2000/svg" viewBox="0 0 200 200" width="200" height="200">
  <g fill="#fde047" stroke="#fef3c7" stroke-width="0.5">
    <polygon points="40,30 43,40 53,43 43,46 40,56 37,46 27,43 37,40"/>
    <polygon points="100,20 103,30 113,33 103,36 100,46 97,36 87,33 97,30"/>
    <polygon points="160,40 163,50 173,53 163,56 160,66 157,56 147,53 157,50"/>
    <polygon points="50,100 52,107 59,109 52,111 50,118 48,111 41,109 48,107"/>
    <polygon points="150,100 152,107 159,109 152,111 150,118 148,111 141,109 148,107"/>
    <polygon points="80,160 83,170 93,173 83,176 80,186 77,176 67,173 77,170"/>
    <polygon points="140,160 143,170 153,173 143,176 140,186 137,176 127,173 137,170"/>
  </g>
  <!-- 가운데에는 작은 점만 (큰 별이 아바타 가리지 않도록) -->
  <g fill="#fef3c7">
    <circle cx="100" cy="100" r="1.5"/>
    <circle cx="120" cy="80" r="1"/>
    <circle cx="80" cy="120" r="1"/>
  </g>
</svg>
